<?xml version="1.0" encoding="UTF-8" standalone="no"?>
<svg
   width="55"
   height="83"
   viewBox="0 0 55 83"
   fill="none"
   version="1.1"
   id="svg1893"
   sodipodi:docname="$.svg"
   inkscape:version="1.2.1 (9c6d41e410, 2022-07-14, custom)"
   xmlns:inkscape="http://www.inkscape.org/namespaces/inkscape"
   xmlns:sodipodi="http://sodipodi.sourceforge.net/DTD/sodipodi-0.dtd"
   xmlns="http://www.w3.org/2000/svg"
   xmlns:svg="http://www.w3.org/2000/svg">
  <defs
     id="defs1897" />
  <sodipodi:namedview
     id="namedview1895"
     pagecolor="#ffffff"
     bordercolor="#000000"
     borderopacity="0.25"
     inkscape:showpageshadow="2"
     inkscape:pageopacity="0.0"
     inkscape:pagecheckerboard="0"
     inkscape:deskcolor="#d1d1d1"
     showgrid="false"
     inkscape:zoom="10.216867"
     inkscape:cx="27.503538"
     inkscape:cy="41.548939"
     inkscape:window-width="1920"
     inkscape:window-height="1019"
     inkscape:window-x="0"
     inkscape:window-y="30"
     inkscape:window-maximized="1"
     inkscape:current-layer="svg1893" />
  <path
     style="color:#000000;fill:#000000;-inkscape-stroke:none"
     d="M 13.583984,8 C 8.3152542,8 3.4009668,11.525404 1.6738281,15.453125 -0.05331057,19.380846 0,23.097059 0,26.380859 v 4.47461 3.714843 c 0,4.36083 2.6306684,8.427378 5.7578125,10.363282 3.1271441,1.935903 6.4469205,2.447265 9.5761715,2.447265 H 42.619141 C 42.806916,48.23439 43,50.306788 43,53.142578 v 8.529297 C 41.98541,61.849504 40.206595,62 37.916016,62 H 0 v 12 h 37.916016 c 2.624997,0 5.726294,0.154833 9.197265,-0.861328 1.735486,-0.50808 3.711876,-1.397736 5.345703,-3.207031 C 54.092812,68.122345 55,65.462847 55,63.046875 v -9.904297 c 0,-3.095347 0.209604,-6.395158 -1.042969,-10.117187 -0.626286,-1.861015 -1.799044,-3.954682 -3.802734,-5.466797 -2.00369,-1.512116 -4.574839,-2.177735 -6.988281,-2.177735 H 15.333984 c -1.537344,0 -2.886913,-0.419571 -3.259765,-0.65039 C 11.701366,34.499649 12,35.161978 12,34.570312 v -3.714843 -4.47461 c 0,-2.906893 0.343686,-5.380454 0.658203,-6.095703 C 12.97272,19.569907 11.852752,20 13.583984,20 H 55 V 8 Z"
     id="path1887" />
  <path
     d="M28 0V19"
     stroke="black"
     stroke-width="12"
     id="path1889" />
  <path
     d="M28 64V83"
     stroke="black"
     stroke-width="12"
     id="path1891" />
</svg>
