<?xml version="1.0" encoding="UTF-8" standalone="no"?>
<svg
   width="58"
   height="77"
   viewBox="0 0 58 77"
   fill="none"
   version="1.1"
   id="svg1873"
   sodipodi:docname="&amp;.svg"
   inkscape:version="1.2.1 (9c6d41e410, 2022-07-14, custom)"
   xmlns:inkscape="http://www.inkscape.org/namespaces/inkscape"
   xmlns:sodipodi="http://sodipodi.sourceforge.net/DTD/sodipodi-0.dtd"
   xmlns="http://www.w3.org/2000/svg"
   xmlns:svg="http://www.w3.org/2000/svg">
  <defs
     id="defs1877" />
  <sodipodi:namedview
     id="namedview1875"
     pagecolor="#ffffff"
     bordercolor="#000000"
     borderopacity="0.25"
     inkscape:showpageshadow="2"
     inkscape:pageopacity="0.0"
     inkscape:pagecheckerboard="0"
     inkscape:deskcolor="#d1d1d1"
     showgrid="false"
     inkscape:zoom="11.012987"
     inkscape:cx="28.965802"
     inkscape:cy="38.545401"
     inkscape:window-width="1920"
     inkscape:window-height="1019"
     inkscape:window-x="0"
     inkscape:window-y="30"
     inkscape:window-maximized="1"
     inkscape:current-layer="svg1873" />
  <path
     style="color:#000000;fill:#000000;-inkscape-stroke:none"
     d="m 30.5,8.7148438 c -4.78265,-1e-7 -9.179934,1.6101122 -12.091797,4.5410152 -2.911863,2.930903 -4.16222,6.600533 -4.755859,10.009766 -0.821635,4.718593 -0.606527,9.106087 -0.378906,12.919922 C 9.8799661,37.389478 6.9396379,39.407129 4.9199219,42.003906 1.7406748,46.09151 0.375,51.083338 0.375,56 c 0,4.916662 1.3656748,9.90849 4.5449219,13.996094 C 8.0991689,74.083697 13.41072,77 19.5,77 h 35 V 47 H 58 V 35 H 48.5 25.306641 c -0.154598,-3.627101 -0.276501,-7.134443 0.166015,-9.675781 0.34386,-1.974762 0.937257,-3.096032 1.447266,-3.609375 0.510009,-0.513344 1.112736,-1 3.580078,-1 H 53 V 8.7148438 Z M 19.5,47 h 23 v 18 h -23 C 16.839288,65 15.588327,64.166297 14.392578,62.628906 13.19683,61.091515 12.375,58.583331 12.375,56 c 0,-2.583331 0.82183,-5.091515 2.017578,-6.628906 C 15.588327,47.833703 16.839288,47 19.5,47 Z"
     id="path1871" />
</svg>
