<?xml version="1.0" encoding="UTF-8" standalone="no"?>
<svg
   width="55"
   height="104"
   viewBox="0 0 55 104"
   fill="none"
   version="1.1"
   id="svg436"
   sodipodi:docname="(.svg"
   inkscape:version="1.2.1 (9c6d41e410, 2022-07-14, custom)"
   xmlns:inkscape="http://www.inkscape.org/namespaces/inkscape"
   xmlns:sodipodi="http://sodipodi.sourceforge.net/DTD/sodipodi-0.dtd"
   xmlns="http://www.w3.org/2000/svg"
   xmlns:svg="http://www.w3.org/2000/svg">
  <defs
     id="defs440" />
  <sodipodi:namedview
     id="namedview438"
     pagecolor="#ffffff"
     bordercolor="#000000"
     borderopacity="0.25"
     inkscape:showpageshadow="2"
     inkscape:pageopacity="0.0"
     inkscape:pagecheckerboard="0"
     inkscape:deskcolor="#d1d1d1"
     showgrid="false"
     inkscape:zoom="8.1538462"
     inkscape:cx="27.471698"
     inkscape:cy="52.061321"
     inkscape:window-width="1920"
     inkscape:window-height="1019"
     inkscape:window-x="0"
     inkscape:window-y="30"
     inkscape:window-maximized="1"
     inkscape:current-layer="svg436" />
  <path
     style="color:#000000;fill:#000000;-inkscape-stroke:none"
     d="m 25.566406,0 c -5.30873,0 -9.634,0.50462313 -13.419922,1.9257812 C 8.3605624,3.3469394 5.1538144,5.9644367 3.265625,9.1933594 -0.51075384,15.651205 0,22.729787 0,31.298828 c 0,0 -2.0000013e-5,33.24122 0,46.298828 4.9999932e-6,6.528791 -0.49942586,12.822161 3.5429688,18.554688 2.0211973,2.866263 5.1931458,5.013796 8.8593752,6.203126 C 16.068573,103.5448 20.299384,104 25.566406,104 H 55 V 92 H 25.566406 c -4.516263,0 -7.62407,-0.46271 -9.460937,-1.058594 -1.836867,-0.595884 -2.331237,-1.100967 -2.75586,-1.703125 C 12.500364,88.033965 12.000005,84.126452 12,77.597656 c -2e-5,-13.057565 0,-46.298828 0,-46.298828 0,-8.569041 0.509736,-14.139704 1.625,-16.046875 0.557632,-0.953585 1.021105,-1.447204 2.738281,-2.091797 C 18.080457,12.515563 21.091852,12 25.566406,12 h 29.34961 V 0 Z"
     id="path434" />
</svg>
