<?xml version="1.0" encoding="UTF-8" standalone="no"?>
<svg
   width="55"
   height="104"
   viewBox="0 0 55 104"
   fill="none"
   version="1.1"
   id="svg452"
   sodipodi:docname=").svg"
   inkscape:version="1.2.1 (9c6d41e410, 2022-07-14, custom)"
   xmlns:inkscape="http://www.inkscape.org/namespaces/inkscape"
   xmlns:sodipodi="http://sodipodi.sourceforge.net/DTD/sodipodi-0.dtd"
   xmlns="http://www.w3.org/2000/svg"
   xmlns:svg="http://www.w3.org/2000/svg">
  <defs
     id="defs456" />
  <sodipodi:namedview
     id="namedview454"
     pagecolor="#ffffff"
     bordercolor="#000000"
     borderopacity="0.25"
     inkscape:showpageshadow="2"
     inkscape:pageopacity="0.0"
     inkscape:pagecheckerboard="0"
     inkscape:deskcolor="#d1d1d1"
     showgrid="false"
     inkscape:zoom="8.1538462"
     inkscape:cx="27.471698"
     inkscape:cy="52.061321"
     inkscape:window-width="1920"
     inkscape:window-height="1019"
     inkscape:window-x="0"
     inkscape:window-y="30"
     inkscape:window-maximized="1"
     inkscape:current-layer="svg452" />
  <path
     style="color:#000000;fill:#000000;-inkscape-stroke:none"
     d="M 0.08398437,0 V 12 H 29.433594 c 4.474557,0 7.485947,0.515563 9.203125,1.160156 1.717177,0.644594 2.180649,1.138212 2.738281,2.091797 C 42.490264,17.159124 43,22.729787 43,31.298828 v 46.298828 c 0,6.528794 -0.500363,10.436309 -1.349609,11.640625 -0.424624,0.602158 -0.91899,1.107241 -2.75586,1.703125 C 37.057661,91.537291 33.94986,92 29.433594,92 H 0 v 12 h 29.433594 c 5.267024,0 9.497832,-0.4552 13.164062,-1.64453 3.666231,-1.18933 6.838176,-3.336863 8.859375,-6.203126 C 55.49943,90.419817 55,84.12645 55,77.597656 V 31.298828 C 55,22.729787 55.510756,15.651205 51.734375,9.1933594 49.846185,5.9644365 46.639439,3.346939 42.853516,1.9257812 39.067593,0.50462345 34.742327,0 29.433594,0 Z"
     id="path450" />
</svg>
