<?xml version="1.0" encoding="UTF-8" standalone="no"?>
<svg
   width="56"
   height="83"
   viewBox="0 0 56 83"
   fill="none"
   version="1.1"
   id="svg80"
   sodipodi:docname="0.svg"
   inkscape:version="1.2.1 (9c6d41e410, 2022-07-14, custom)"
   xmlns:inkscape="http://www.inkscape.org/namespaces/inkscape"
   xmlns:sodipodi="http://sodipodi.sourceforge.net/DTD/sodipodi-0.dtd"
   xmlns="http://www.w3.org/2000/svg"
   xmlns:svg="http://www.w3.org/2000/svg">
  <defs
     id="defs84" />
  <sodipodi:namedview
     id="namedview82"
     pagecolor="#ffffff"
     bordercolor="#000000"
     borderopacity="0.25"
     inkscape:showpageshadow="2"
     inkscape:pageopacity="0.0"
     inkscape:pagecheckerboard="0"
     inkscape:deskcolor="#d1d1d1"
     showgrid="false"
     inkscape:zoom="3.6122081"
     inkscape:cx="62.15035"
     inkscape:cy="45.678431"
     inkscape:window-width="1433"
     inkscape:window-height="756"
     inkscape:window-x="621"
     inkscape:window-y="152"
     inkscape:window-maximized="0"
     inkscape:current-layer="svg80" />
  <path
     style="color:#000000;fill:#000000;-inkscape-stroke:none"
     d="m 31,0 v 12 c 8.954654,0 11.78123,1.536288 12.152344,1.951172 C 43.523457,14.366055 44,16.620802 44,22.060547 v 41.988281 c 0,2.072298 -0.05062,3.636008 -0.197266,4.427734 -0.146646,0.791727 -0.145673,0.651899 -0.257812,0.75586 C 43.320644,69.440344 40.009191,71 31,71 v 12 c 9.99079,0 16.179361,-0.771123 20.705078,-4.966797 2.262859,-2.097837 3.451335,-4.957248 3.898438,-7.371094 C 56.050618,68.248264 56,66.121126 56,64.048828 V 22.060547 C 56,16.620802 56.476538,10.844555 52.097656,5.9492187 47.718774,1.0538824 41.045327,0 31,0 Z"
     id="path72" />
  <path
     style="color:#000000;fill:#000000;-inkscape-stroke:none"
     d="m 29,32 c -1.856709,0 -3.852499,0.02293 -5.580078,1.917969 C 21.692342,35.813008 22,37.645482 22,38.488281 v 6.50586 c 0,0.321049 -0.03351,0.797387 0.117187,1.595703 0.1507,0.798315 0.656929,2.020334 1.566407,2.847656 C 25.50255,51.092144 27.178935,51 29,51 v -7.527344 c 0.03778,0.03274 0.02606,0.01018 0.06641,0.04687 0.534479,0.486197 0.853207,1.286206 0.910156,1.587891 C 30.033512,45.409106 30,45.31519 30,44.994141 v -6.50586 C 30,37.645482 30.307658,38.2343 29.330078,39.306641 29.161755,39.49128 29.133894,39.456534 29,39.564453 Z"
     id="path74" />
  <path
     style="color:#000000;fill:#000000;-inkscape-stroke:none"
     d="M 31,0 C 18.568292,0 11.27143,0.81235888 6.0234375,5.4570312 3.3994411,7.7793674 2.0058459,11.018388 1.4765625,13.863281 0.94727909,16.708174 1,19.340675 1,22.060547 c 0,0 -2e-5,33.699041 0,41.988281 2.5e-6,2.072296 -0.0745638,4.289064 0.5332031,6.886719 0.607767,2.597655 2.2850116,5.60222 4.9160156,7.533203 C 11.711227,82.330716 18.611467,83 31,83 V 71 C 19.388567,71 14.288762,69.336551 13.550781,68.794922 13.181791,68.524107 13.35903,68.809089 13.216797,68.201172 13.074564,67.593255 13.000002,66.121128 13,64.048828 c -2e-5,-8.289143 0,-41.988281 0,-41.988281 0,-2.719872 0.05272,-4.81561 0.273438,-6.001953 0.220715,-1.186344 0.327125,-1.282461 0.703125,-1.615235 C 14.728561,13.777812 19.431742,12 31,12 Z"
     id="path76" />
  <path
     style="color:#000000;fill:#000000;-inkscape-stroke:none"
     d="m 29,32 v 7.564453 C 28.866106,39.456534 28.838245,39.49128 28.669922,39.306641 27.692342,38.2343 28,37.645482 28,38.488281 v 6.50586 c 0,0.321049 -0.03351,0.414965 0.02344,0.113281 0.05695,-0.301685 0.375678,-1.101694 0.910157,-1.587891 0.04034,-0.0367 0.02863,-0.01414 0.06641,-0.04687 V 51 c 1.821065,0 3.49745,0.09214 5.316406,-1.5625 0.909478,-0.827322 1.415707,-2.049341 1.566406,-2.847656 C 36.033512,45.791528 36,45.31519 36,44.994141 v -6.50586 C 36,37.645482 36.307658,35.813008 34.580078,33.917969 32.852499,32.022929 30.856709,32 29,32 Z"
     id="path78" />
</svg>
