<svg width="56" height="83" viewBox="0 0 56 83" fill="none" xmlns="http://www.w3.org/2000/svg">
<path d="M31 6C50 6 50 11.1807 50 22.0602C50 22.0602 50 55.759 50 64.0482C50 72.3374 50 77 31 77" stroke="black" stroke-width="12"/>
<path d="M29 36C26 36 26 36.8026 26 38.4882C26 38.4882 26 43.7091 26 44.9934C26 46.2776 26 47 29 47" stroke="black" stroke-width="8"/>
<path d="M31 6C7.00001 6 7.00001 11.1807 7.00001 22.0602C7.00001 22.0602 6.99999 55.759 7.00001 64.0482C7.00002 72.3374 7.00001 77 31 77" stroke="black" stroke-width="12"/>
<path d="M29 36C32 36 32 36.8026 32 38.4882C32 38.4882 32 43.7091 32 44.9934C32 46.2776 32 47 29 47" stroke="black" stroke-width="8"/>
</svg>
