<?xml version="1.0" encoding="UTF-8" standalone="no"?>
<svg
   width="55"
   height="84"
   viewBox="0 0 55 84"
   fill="none"
   version="1.1"
   id="svg298"
   sodipodi:docname="2.svg"
   inkscape:version="1.2.1 (9c6d41e410, 2022-07-14, custom)"
   xmlns:inkscape="http://www.inkscape.org/namespaces/inkscape"
   xmlns:sodipodi="http://sodipodi.sourceforge.net/DTD/sodipodi-0.dtd"
   xmlns="http://www.w3.org/2000/svg"
   xmlns:svg="http://www.w3.org/2000/svg">
  <defs
     id="defs302" />
  <sodipodi:namedview
     id="namedview300"
     pagecolor="#ffffff"
     bordercolor="#000000"
     borderopacity="0.25"
     inkscape:showpageshadow="2"
     inkscape:pageopacity="0.0"
     inkscape:pagecheckerboard="0"
     inkscape:deskcolor="#d1d1d1"
     showgrid="false"
     inkscape:zoom="5.0476191"
     inkscape:cx="51.806604"
     inkscape:cy="50.915094"
     inkscape:window-width="1433"
     inkscape:window-height="756"
     inkscape:window-x="567"
     inkscape:window-y="219"
     inkscape:window-maximized="0"
     inkscape:current-layer="svg298" />
  <path
     style="color:#000000;fill:#000000;-inkscape-stroke:none"
     d="m 0,0 v 12 h 35 c 5.142852,0 5.573676,1.088488 6.679687,3.853516 C 42.785699,18.618543 43,23.500005 43,28 v 5.5 c 0,0.899999 -0.616333,3.26393 -1.894531,4.826172 C 39.827271,39.888414 38.299997,41 35,41 H 11.5 C 9.2638911,41 6.8102589,41.759554 5.0058594,43.195312 3.2014599,44.631071 2.1283025,46.481898 1.4589844,48.232422 0.1203481,51.733471 0,55.21429 0,59 v 24.5 h 55 v -12 H 12 V 59 c 0,-2.975113 0.341605,-5.068483 0.617188,-6 H 35 C 41.699993,53 47.172734,49.86158 50.394531,45.923828 53.616329,41.986076 55,37.599996 55,33.5 V 28 C 55,23.500004 55.214298,17.381448 52.820312,11.396484 50.426327,5.4115209 43.857134,0 35,0 Z"
     id="path296" />
</svg>
