<?xml version="1.0" encoding="UTF-8" standalone="no"?>
<svg
   width="55"
   height="83"
   viewBox="0 0 55 83"
   fill="none"
   version="1.1"
   id="svg4"
   sodipodi:docname="6.svg"
   inkscape:version="1.2.1 (9c6d41e410, 2022-07-14, custom)"
   xmlns:inkscape="http://www.inkscape.org/namespaces/inkscape"
   xmlns:sodipodi="http://sodipodi.sourceforge.net/DTD/sodipodi-0.dtd"
   xmlns="http://www.w3.org/2000/svg"
   xmlns:svg="http://www.w3.org/2000/svg">
  <defs
     id="defs8" />
  <sodipodi:namedview
     id="namedview6"
     pagecolor="#ffffff"
     bordercolor="#000000"
     borderopacity="0.25"
     inkscape:showpageshadow="2"
     inkscape:pageopacity="0.0"
     inkscape:pagecheckerboard="0"
     inkscape:deskcolor="#d1d1d1"
     showgrid="false"
     inkscape:zoom="10.216867"
     inkscape:cx="27.503538"
     inkscape:cy="41.548939"
     inkscape:window-width="1920"
     inkscape:window-height="1019"
     inkscape:window-x="0"
     inkscape:window-y="30"
     inkscape:window-maximized="1"
     inkscape:current-layer="svg4" />
  <path
     style="color:#000000;fill:#000000;-inkscape-stroke:none"
     d="M 21.5,0 C 15.000007,0 9.3802207,0.61141923 5.1230469,4.6445312 0.86587308,8.6776433 0,14.416673 0,21 v 45 c 0,3.999996 -0.36619616,6.952275 1.1035156,10.693359 0.7348559,1.870543 2.3814133,3.951582 4.4257813,5.025391 C 7.5736648,82.792559 9.5795474,83 11.5,83 H 37.519531 C 43.692696,83 48.666223,79.421799 51.318359,75.46875 53.970496,71.515701 55,67.311996 55,63.5 V 58 C 55,51.495562 51.20001,46.470586 47.396484,44.058594 43.592958,41.646602 40.375545,41 37.519531,41 H 12 V 21 c 0,-5.416661 0.884132,-7.177648 1.376953,-7.644531 C 13.869775,12.888585 16.000005,12 21.5,12 H 55 V 0 Z M 12,53 h 25.519531 c -0.396016,0 2.12775,0.353402 3.449219,1.191406 C 42.290219,55.029411 43,55.504447 43,58 v 5.5 c 0,1.187999 -0.610578,3.734304 -1.648438,5.28125 C 40.313703,70.328196 39.546358,71 37.519531,71 H 12.214844 C 12.166527,70.320582 12,69.171247 12,66 Z"
     id="path2" />
</svg>
