<svg width="59" height="83" viewBox="0 0 59 83" fill="none" xmlns="http://www.w3.org/2000/svg">
<path d="M39.52 50H15C8.00004 50 8.00002 52.7 8.00001 56.3L8.00001 56.3V67.1C8.00001 74.3 8.00001 77 13.5 77H39.52C51 77 51 71.6 51 63.5C51 55.4 51 50 39.52 50Z" stroke="black" stroke-width="12"/>
<path d="M29.26 6H41.5201C53 6 53 14 53 26C53 38 53 46 41.5201 46H29.26" stroke="black" stroke-width="12"/>
<path d="M29.74 6H17.48C5.99999 6 5.99999 14 5.99999 26C5.99999 38 5.99999 46 17.48 46H29.74" stroke="black" stroke-width="12"/>
</svg>
