<?xml version="1.0" encoding="UTF-8" standalone="no"?>
<svg
   width="59"
   height="83"
   viewBox="0 0 59 83"
   fill="none"
   version="1.1"
   id="svg8"
   sodipodi:docname="8.svg"
   inkscape:version="1.2.1 (9c6d41e410, 2022-07-14, custom)"
   xmlns:inkscape="http://www.inkscape.org/namespaces/inkscape"
   xmlns:sodipodi="http://sodipodi.sourceforge.net/DTD/sodipodi-0.dtd"
   xmlns="http://www.w3.org/2000/svg"
   xmlns:svg="http://www.w3.org/2000/svg">
  <defs
     id="defs12" />
  <sodipodi:namedview
     id="namedview10"
     pagecolor="#ffffff"
     bordercolor="#000000"
     borderopacity="0.25"
     inkscape:showpageshadow="2"
     inkscape:pageopacity="0.0"
     inkscape:pagecheckerboard="0"
     inkscape:deskcolor="#d1d1d1"
     showgrid="false"
     inkscape:zoom="10.216867"
     inkscape:cx="29.461085"
     inkscape:cy="41.548939"
     inkscape:window-width="1920"
     inkscape:window-height="1019"
     inkscape:window-x="0"
     inkscape:window-y="30"
     inkscape:window-maximized="1"
     inkscape:current-layer="svg8" />
  <path
     style="color:#000000;fill:#000000;-inkscape-stroke:none"
     d="M 15,44 C 10.728591,44 6.6798028,44.850024 4.1386719,48.117187 1.5975409,51.384351 2.000005,54.500776 2,56.300781 v 10.798828 c 0,3.599997 -0.4200255,6.363606 1.1894531,10.050782 0.8047393,1.843588 2.574839,3.798764 4.5664063,4.740234 C 9.7474266,82.832095 11.634094,83 13.5,83 h 26.019531 c 3.34038,0 6.199503,-0.355148 8.826172,-1.384766 2.626669,-1.029617 4.972025,-2.948131 6.347656,-5.21289 C 57.444623,71.872825 57,67.549996 57,63.5 57,59.450004 57.444623,55.127175 54.693359,50.597656 53.317728,48.332897 50.972372,46.414383 48.345703,45.384766 45.719034,44.355148 42.859911,44 39.519531,44 Z m 0,12 h 24.519531 c 2.399615,0 3.845188,0.320635 4.447266,0.556641 0.602078,0.236006 0.411336,0.173746 0.470703,0.271484 C 44.556234,57.023601 45,59.450004 45,63.5 c 0,4.049996 -0.443766,6.476399 -0.5625,6.671875 -0.05937,0.09774 0.131375,0.03548 -0.470703,0.271484 C 43.364719,70.679365 41.919146,71 39.519531,71 H 14.138672 C 14.115377,70.422969 14,69.77418 14,67.099609 V 56.300781 c 0,-0.147638 0.01305,-0.115969 0.01758,-0.240234 C 14.337211,56.030248 14.334383,56 15,56 Z"
     id="path2" />
  <path
     style="color:#000000;fill:#000000;-inkscape-stroke:none"
     d="m 29.259766,0 v 12 h 12.259765 c 2.173103,0 3.212367,0.387326 3.625,0.626953 0.412634,0.239627 0.532077,0.326322 0.869141,1.148438 C 46.687801,15.419621 47,20.000006 47,26 47,31.999994 46.687801,36.580379 46.013672,38.224609 45.676608,39.046725 45.557165,39.13342 45.144531,39.373047 44.731898,39.612674 43.692634,40 41.519531,40 H 29.259766 v 12 h 12.259765 c 3.566842,0 6.834306,-0.612676 9.650391,-2.248047 2.816085,-1.635371 4.849344,-4.298681 5.947265,-6.976562 C 59.313031,37.419628 59,31.999994 59,26 59,20.000006 59.313031,14.580372 57.117187,9.2246094 56.019266,6.5467282 53.986007,3.8834182 51.169922,2.2480469 48.353837,0.61267553 45.086373,0 41.519531,0 Z"
     id="path4" />
  <path
     style="color:#000000;fill:#000000;-inkscape-stroke:none"
     d="M 17.480469,0 C 13.913606,0 10.646176,0.61268385 7.8300781,2.2480469 5.0139805,3.8834099 2.9807468,6.5467231 1.8828125,9.2246094 -0.31305614,14.580382 0,20.000006 0,26 0,31.999994 -0.31305614,37.419618 1.8828125,42.775391 2.9807468,45.453277 5.0139805,48.11659 7.8300781,49.751953 10.646176,51.387316 13.913606,52 17.480469,52 H 29.740234 V 40 H 17.480469 c -2.173137,0 -3.212348,-0.387318 -3.625,-0.626953 C 13.442817,39.133412 13.323394,39.04672 12.986328,38.224609 12.312197,36.580389 12,31.999994 12,26 12,20.000006 12.312197,15.419611 12.986328,13.775391 13.323394,12.95328 13.442817,12.866588 13.855469,12.626953 14.268121,12.387318 15.307332,12 17.480469,12 H 29.740234 V 0 Z"
     id="path6" />
</svg>
