<?xml version="1.0" encoding="UTF-8" standalone="no"?>
<svg
   width="55"
   height="83"
   viewBox="0 0 55 83"
   fill="none"
   version="1.1"
   id="svg4"
   sodipodi:docname="9.svg"
   inkscape:version="1.2.1 (9c6d41e410, 2022-07-14, custom)"
   xmlns:inkscape="http://www.inkscape.org/namespaces/inkscape"
   xmlns:sodipodi="http://sodipodi.sourceforge.net/DTD/sodipodi-0.dtd"
   xmlns="http://www.w3.org/2000/svg"
   xmlns:svg="http://www.w3.org/2000/svg">
  <defs
     id="defs8" />
  <sodipodi:namedview
     id="namedview6"
     pagecolor="#ffffff"
     bordercolor="#000000"
     borderopacity="0.25"
     inkscape:showpageshadow="2"
     inkscape:pageopacity="0.0"
     inkscape:pagecheckerboard="0"
     inkscape:deskcolor="#d1d1d1"
     showgrid="false"
     inkscape:zoom="10.216867"
     inkscape:cx="27.503538"
     inkscape:cy="41.548939"
     inkscape:window-width="1920"
     inkscape:window-height="1019"
     inkscape:window-x="0"
     inkscape:window-y="30"
     inkscape:window-maximized="1"
     inkscape:current-layer="svg4" />
  <path
     style="color:#000000;fill:#000000;-inkscape-stroke:none"
     d="M 17.480469,0 C 11.307304,0 6.3337713,3.578199 3.6816406,7.53125 1.02951,11.484301 0,15.688012 0,19.5 V 36 C 0,42.504433 3.7999938,47.529412 7.6035156,49.941406 11.407037,52.3534 14.624455,53 17.480469,53 H 43 v 9 c 0,5.416661 -0.884132,7.177648 -1.376953,7.644531 C 41.130225,70.111415 38.999994,71 33.5,71 H 0 V 83 H 33.5 C 39.999994,83 45.619779,82.388581 49.876953,78.355469 54.134127,74.322357 55,68.583327 55,62 V 17 C 55,13.000004 55.366196,10.047725 53.896484,6.3066406 53.161628,4.4360984 51.515071,2.3550594 49.470703,1.28125 47.426335,0.20744056 45.420453,0 43.5,0 Z m 0,12 H 42.785156 C 42.833473,12.679418 43,13.828753 43,17 V 41 H 17.480469 C 17.876485,41 15.352713,40.646596 14.03125,39.808594 12.709787,38.970591 12,38.495558 12,36 V 19.5 c 0,-1.188007 0.610582,-3.734306 1.648438,-5.28125 C 14.686293,12.671806 15.453642,12 17.480469,12 Z"
     id="path2" />
</svg>
