<?xml version="1.0" encoding="UTF-8" standalone="no"?>
<svg
   width="56"
   height="76"
   viewBox="0 0 56 76"
   fill="none"
   version="1.1"
   id="svg669"
   sodipodi:docname="@.svg"
   inkscape:version="1.2.1 (9c6d41e410, 2022-07-14, custom)"
   xmlns:inkscape="http://www.inkscape.org/namespaces/inkscape"
   xmlns:sodipodi="http://sodipodi.sourceforge.net/DTD/sodipodi-0.dtd"
   xmlns="http://www.w3.org/2000/svg"
   xmlns:svg="http://www.w3.org/2000/svg">
  <defs
     id="defs673" />
  <sodipodi:namedview
     id="namedview671"
     pagecolor="#ffffff"
     bordercolor="#000000"
     borderopacity="0.25"
     inkscape:showpageshadow="2"
     inkscape:pageopacity="0.0"
     inkscape:pagecheckerboard="0"
     inkscape:deskcolor="#d1d1d1"
     showgrid="false"
     inkscape:zoom="11.157895"
     inkscape:cx="27.962264"
     inkscape:cy="38.044811"
     inkscape:window-width="1920"
     inkscape:window-height="1019"
     inkscape:window-x="0"
     inkscape:window-y="30"
     inkscape:window-maximized="1"
     inkscape:current-layer="svg669" />
  <path
     style="color:#000000;fill:#000000;-inkscape-stroke:none"
     d="M 28.605469,0.56445312 C 22.707447,0.46157522 16.839317,1.0467475 11.771484,2.7851563 9.2375681,3.6543606 6.8509367,4.8000463 4.7753906,6.71875 2.6998445,8.6374537 1,11.708341 1,15 1,39.939876 0.56234069,53.428179 1.4042969,61.847656 1.825275,66.057395 2.3949708,69.476412 5.0722656,72.451172 7.7495604,75.425931 11.694447,76 14.5,76 H 56 V 64 H 14.5 c -0.437794,0 -0.384614,0.01445 -0.542969,0.01758 -0.163369,-0.525429 -0.423691,-1.488882 -0.611328,-3.365234 -0.652631,-6.52625 -0.352681,-20.488937 -0.347656,-45.16211 0.3064,-0.26792 1.213113,-0.854459 2.667969,-1.353515 2.994663,-1.027254 7.876542,-1.658851 12.728515,-1.574219 4.851973,0.08463 9.77117,0.871737 12.88086,1.974609 1.441014,0.511065 2.330368,1.070409 2.724609,1.375 v 7.011719 C 37.047606,23.815304 31.594153,26.328392 28.330078,31.001953 24.171349,36.956497 24,43.991943 24,52 v 6 H 56 V 28.5 22.5 15 C 56,11.639892 54.124554,8.7342545 52.089844,6.9648437 50.055133,5.195433 47.763512,4.1067882 45.287109,3.2285156 40.334304,1.4719705 34.50349,0.66733103 28.605469,0.56445312 Z M 44,34.951172 V 46 h -7.619141 c 0.342091,-3.811065 0.88744,-6.835994 1.789063,-8.126953 C 39.084607,36.563384 40.631377,35.513351 44,34.951172 Z"
     id="path667" />
</svg>
