<?xml version="1.0" encoding="UTF-8" standalone="no"?>
<svg
   width="43"
   height="56"
   viewBox="0 0 43 56"
   fill="none"
   version="1.1"
   id="svg1256"
   sodipodi:docname="a.svg"
   inkscape:version="1.2.1 (9c6d41e410, 2022-07-14, custom)"
   xmlns:inkscape="http://www.inkscape.org/namespaces/inkscape"
   xmlns:sodipodi="http://sodipodi.sourceforge.net/DTD/sodipodi-0.dtd"
   xmlns="http://www.w3.org/2000/svg"
   xmlns:svg="http://www.w3.org/2000/svg">
  <defs
     id="defs1260" />
  <sodipodi:namedview
     id="namedview1258"
     pagecolor="#ffffff"
     bordercolor="#000000"
     borderopacity="0.25"
     inkscape:showpageshadow="2"
     inkscape:pageopacity="0.0"
     inkscape:pagecheckerboard="0"
     inkscape:deskcolor="#d1d1d1"
     showgrid="false"
     inkscape:zoom="15.142857"
     inkscape:cx="21.528302"
     inkscape:cy="28.033019"
     inkscape:window-width="1920"
     inkscape:window-height="1019"
     inkscape:window-x="0"
     inkscape:window-y="30"
     inkscape:window-maximized="1"
     inkscape:current-layer="svg1256" />
  <path
     style="color:#000000;fill:#000000;-inkscape-stroke:none"
     d="M 26.935547,0.02539063 C 24.695957,-0.11386476 22.422022,0.03571039 20.160156,0.375 15.636424,1.0535792 11.166601,2.5467321 7.3535156,5.1523437 3.5404299,7.7579554 0.05078125,12.058597 0.05078125,17.558594 H 12.050781 c 0,-0.499983 0.26035,-1.259903 2.072266,-2.498047 1.811916,-1.238144 4.842089,-2.371906 7.818359,-2.818359 2.976271,-0.446454 5.910202,-0.150261 7.275391,0.373046 1.365189,0.523308 0.833984,-0.05656 0.833984,0.44336 v 9.429687 c -3.073553,-1.058256 -6.303953,-1.416303 -9.423828,-1.195312 -4.800417,0.340029 -9.450416,1.844471 -13.3339843,4.568359 -3.8835678,2.723888 -7.24218745,7.172268 -7.24218745,12.697266 0,3.364996 0.01205908,6.236049 1.41406245,9.367187 1.4020035,3.131138 4.8315897,5.57381 7.9648438,6.38086 6.2665085,1.614098 13.2692355,0.751953 26.6210935,0.751953 h 6 v -15.25 -15.25 -11.5 c 0,-5.4999914 -4.279249,-10.0155549 -8.539062,-11.6484378 C 31.381812,0.59371481 29.175137,0.16464601 26.935547,0.02539063 Z M 21.474609,33.263672 c 2.699586,-0.191221 5.095898,0.428319 6.416016,1.365234 1.320118,0.936916 2.160156,1.925635 2.160156,5.179688 v 3.251953 c -9.402127,0.01966 -16.01301,0.04317 -17.628906,-0.373047 -0.04166,-0.01073 0.0036,0.01368 -0.03125,0.0059 -0.04913,-0.219865 -0.339844,-1.4619 -0.339844,-4.134765 0,-0.724996 0.391379,-1.651626 2.132813,-2.873047 1.741434,-1.221421 4.59143,-2.230655 7.291015,-2.421875 z"
     id="path1254" />
</svg>
