<?xml version="1.0" encoding="UTF-8" standalone="no"?>
<svg
   width="42"
   height="76"
   viewBox="0 0 42 76"
   fill="none"
   version="1.1"
   id="svg1274"
   sodipodi:docname="b.svg"
   inkscape:version="1.2.1 (9c6d41e410, 2022-07-14, custom)"
   xmlns:inkscape="http://www.inkscape.org/namespaces/inkscape"
   xmlns:sodipodi="http://sodipodi.sourceforge.net/DTD/sodipodi-0.dtd"
   xmlns="http://www.w3.org/2000/svg"
   xmlns:svg="http://www.w3.org/2000/svg">
  <defs
     id="defs1278" />
  <sodipodi:namedview
     id="namedview1276"
     pagecolor="#ffffff"
     bordercolor="#000000"
     borderopacity="0.25"
     inkscape:showpageshadow="2"
     inkscape:pageopacity="0.0"
     inkscape:pagecheckerboard="0"
     inkscape:deskcolor="#d1d1d1"
     showgrid="false"
     inkscape:zoom="11.157895"
     inkscape:cx="20.971698"
     inkscape:cy="38.134433"
     inkscape:window-width="1920"
     inkscape:window-height="1019"
     inkscape:window-x="0"
     inkscape:window-y="30"
     inkscape:window-maximized="1"
     inkscape:current-layer="svg1274" />
  <path
     style="color:#000000;fill:#000000;-inkscape-stroke:none"
     d="M 22.933594,20 C 16.718025,20 11.298171,21.622193 7.1640625,24.513672 3.0299544,27.405151 0,31.837406 0,37 h 12 c 0,-0.355001 0.285633,-1.423227 2.042969,-2.652344 C 15.800305,33.11854 18.846573,32 22.933594,32 c 3.315075,0 4.52961,0.686608 5.347656,1.603516 C 29.099296,34.520423 30,36.581494 30,40.744141 v 17.308593 c 0,3.746838 -0.609736,3.956001 -1.935547,4.697266 -1.254177,0.701215 -4.073845,1.161726 -7.292969,1.212891 C 13.287507,62.680768 12,59.399662 12,57.349609 H 0 c 0,8.598827 7.4451953,16.749115 19.351562,18.580078 L 19.804687,76 h 0.458985 C 24.44202,76 29.287167,75.815891 33.921875,73.224609 38.556583,70.633328 42,64.868886 42,58.052734 V 40.744141 C 42,34.871697 40.75515,29.561497 37.234375,25.615234 33.7136,21.668972 28.39481,20 22.933594,20 Z"
     id="path170" />
  <path
     id="rect173"
     style="fill:#000000"
     d="M 0,0 H 12 V 76 H 0 Z" />
</svg>
