<?xml version="1.0" encoding="UTF-8" standalone="no"?>
<svg
   width="55"
   height="83"
   viewBox="0 0 55 83"
   fill="none"
   version="1.1"
   id="svg697"
   sodipodi:docname="B.svg"
   inkscape:version="1.2.1 (9c6d41e410, 2022-07-14, custom)"
   xmlns:inkscape="http://www.inkscape.org/namespaces/inkscape"
   xmlns:sodipodi="http://sodipodi.sourceforge.net/DTD/sodipodi-0.dtd"
   xmlns="http://www.w3.org/2000/svg"
   xmlns:svg="http://www.w3.org/2000/svg">
  <defs
     id="defs701" />
  <sodipodi:namedview
     id="namedview699"
     pagecolor="#ffffff"
     bordercolor="#000000"
     borderopacity="0.25"
     inkscape:showpageshadow="2"
     inkscape:pageopacity="0.0"
     inkscape:pagecheckerboard="0"
     inkscape:deskcolor="#d1d1d1"
     showgrid="false"
     inkscape:zoom="10.216867"
     inkscape:cx="27.503538"
     inkscape:cy="41.548939"
     inkscape:window-width="1920"
     inkscape:window-height="1019"
     inkscape:window-x="0"
     inkscape:window-y="30"
     inkscape:window-maximized="1"
     inkscape:current-layer="svg697" />
  <path
     style="color:#000000;fill:#000000;-inkscape-stroke:none"
     d="M 25.519531,-0.0078125 C 19.707545,-0.27859274 13.273301,0.06445312 6,0.06445312 H 0 v 43.99999988 38 h 6 c 17.105055,0 27.546189,0.795023 35.470703,-0.589844 3.962257,-0.692433 7.86965,-2.239113 10.416016,-5.544922 C 54.433085,72.623879 55,68.671592 55,64.564453 55,59.731125 54.689189,56.019964 53.457031,52.646484 53.027915,51.471623 52.357549,50.376375 51.599609,49.345703 51.772214,49.119616 52.019743,48.991869 52.179687,48.751953 54.15703,45.785939 55,42.122141 55,38.064453 55,28.928755 54.182737,21.932022 52.052734,16.207031 49.922731,10.48204 46.083782,6.0555642 41.302734,3.6015625 36.521687,1.1475608 31.331518,0.26296774 25.519531,-0.0078125 Z M 12,12.136719 c 11.298883,0.02099 19.987162,0.172154 23.822266,2.140625 2.281445,1.171013 3.661256,2.557023 4.984375,6.113281 C 42.129759,23.946883 43,29.700184 43,38.064453 c 0,2.442305 -0.469533,3.528518 -0.804688,4.03125 -0.335154,0.502733 -0.658531,0.787344 -1.771484,1.169922 -0.564677,0.194108 -1.731906,0.236278 -2.621094,0.347656 -3.162747,0.04433 -6.442369,0.451172 -10.302734,0.451172 -4.56976,0 -8.464142,0.249145 -11.111328,-0.167969 C 14.339937,43.573668 13.168406,42.949873 12,41.724609 Z m 0,42.984375 c 0.846386,0.241906 1.697806,0.49912 2.521484,0.628906 4.716257,0.743135 9.048285,0.314453 12.978516,0.314453 8.201605,0 13.713932,-0.177709 14.333984,0.07031 0.310027,0.12401 -0.02761,-0.40386 0.34961,0.628906 C 42.56081,57.796438 43,60.397791 43,64.564453 c 0,2.892854 -0.495588,3.878078 -0.621094,4.041016 -0.125506,0.162938 -0.499373,0.616262 -2.974609,1.048828 C 35.148817,70.397973 25.427506,70.177339 12,70.097656 Z"
     id="path695" />
</svg>
