<?xml version="1.0" encoding="UTF-8" standalone="no"?>
<svg
   width="56"
   height="84"
   viewBox="0 0 56 84"
   fill="none"
   version="1.1"
   id="svg713"
   sodipodi:docname="C.svg"
   inkscape:version="1.2.1 (9c6d41e410, 2022-07-14, custom)"
   xmlns:inkscape="http://www.inkscape.org/namespaces/inkscape"
   xmlns:sodipodi="http://sodipodi.sourceforge.net/DTD/sodipodi-0.dtd"
   xmlns="http://www.w3.org/2000/svg"
   xmlns:svg="http://www.w3.org/2000/svg">
  <defs
     id="defs717" />
  <sodipodi:namedview
     id="namedview715"
     pagecolor="#ffffff"
     bordercolor="#000000"
     borderopacity="0.25"
     inkscape:showpageshadow="2"
     inkscape:pageopacity="0.0"
     inkscape:pagecheckerboard="0"
     inkscape:deskcolor="#d1d1d1"
     showgrid="false"
     inkscape:zoom="10.095238"
     inkscape:cx="28.033019"
     inkscape:cy="42.049528"
     inkscape:window-width="1920"
     inkscape:window-height="1019"
     inkscape:window-x="0"
     inkscape:window-y="30"
     inkscape:window-maximized="1"
     inkscape:current-layer="svg713" />
  <path
     style="color:#000000;fill:#000000;-inkscape-stroke:none"
     d="M 27.5,0 C 19.877639,0 13.242744,1.3422163 8.0742188,5.09375 2.9056933,8.8452837 0,15.19356 0,22.060547 c 0,0 -2.000008e-5,30.536436 0,41.988281 5.7625038e-6,3.299552 0.31040157,6.292023 1.4980469,9.154297 1.1876453,2.862274 3.4907693,5.41001 6.1914062,6.882812 C 13.090727,83.031543 19.06819,83 27.5,83 c 8.007619,0 13.889237,1.349807 20.039062,-2.363281 3.074913,-1.856544 5.217677,-5.219732 6.205079,-8.78711 C 54.731542,68.282232 55,64.249995 55,59 H 43 c 0,4.749995 -0.35654,7.967774 -0.822266,9.650391 -0.465725,1.682617 -0.6042,1.569436 -0.841797,1.71289 C 40.860744,70.650189 35.992464,71 27.5,71 19.431826,71 14.659231,70.218122 13.435547,69.550781 c -0.611842,-0.33367 -0.59,-0.307474 -0.855469,-0.947265 C 12.314609,67.963725 12.000004,66.47517 12,64.048828 c -2e-5,-11.451731 0,-41.988281 0,-41.988281 0,-4.012502 0.97563,-5.69522 3.123047,-7.253906 C 17.270464,13.247955 21.386275,12 27.5,12 c 5.534569,2e-6 9.2755,0.529984 11.376953,1.230469 2.101453,0.700484 2.478233,1.177684 2.962891,2.035156 C 42.80916,16.980569 43,23.033793 43,32.5 H 55 C 55,23.466225 56.190835,16.26942 52.285156,9.359375 50.332317,5.9043524 46.804791,3.2252954 42.671875,1.8476562 38.538959,0.47001708 33.715419,2.6448591e-6 27.5,0 Z"
     id="path711" />
</svg>
