<?xml version="1.0" encoding="UTF-8" standalone="no"?>
<svg
   width="43"
   height="55"
   viewBox="0 0 43 55"
   fill="none"
   version="1.1"
   id="svg1293"
   sodipodi:docname="c.svg"
   inkscape:version="1.2.1 (9c6d41e410, 2022-07-14, custom)"
   xmlns:inkscape="http://www.inkscape.org/namespaces/inkscape"
   xmlns:sodipodi="http://sodipodi.sourceforge.net/DTD/sodipodi-0.dtd"
   xmlns="http://www.w3.org/2000/svg"
   xmlns:svg="http://www.w3.org/2000/svg">
  <defs
     id="defs1297" />
  <sodipodi:namedview
     id="namedview1295"
     pagecolor="#ffffff"
     bordercolor="#000000"
     borderopacity="0.25"
     inkscape:showpageshadow="2"
     inkscape:pageopacity="0.0"
     inkscape:pagecheckerboard="0"
     inkscape:deskcolor="#d1d1d1"
     showgrid="false"
     inkscape:zoom="15.418182"
     inkscape:cx="21.46816"
     inkscape:cy="27.532429"
     inkscape:window-width="1920"
     inkscape:window-height="1019"
     inkscape:window-x="0"
     inkscape:window-y="30"
     inkscape:window-maximized="1"
     inkscape:current-layer="svg1293" />
  <path
     style="color:#000000;fill:#000000;-inkscape-stroke:none"
     d="M 24,0 C 17.349015,0 11.288638,1.4878976 6.7578125,5.4160156 2.2269869,9.3441337 0,15.425897 0,22.060547 c 0,0 -1.9999995e-5,2.536484 0,13.988281 C 6.220026e-6,43.171878 3.3384829,49.284719 8.3359375,52.0625 13.333392,54.840281 18.700005,55 24,55 31.249993,55 37.009617,52.104415 39.644531,47.712891 42.279446,43.321367 42,38.999997 42,36.5 H 30 c 0,2.499997 -0.279449,4.428638 -0.644531,5.037109 C 28.990386,42.14558 28.749995,43 24,43 19.300005,43 15.666594,42.409384 14.164063,41.574219 12.661531,40.739053 12.000004,40.377567 12,36.048828 c -2e-5,-11.45178 0,-13.988281 0,-13.988281 0,-4.24484 1.023024,-6.19407 2.617188,-7.576172 C 16.211351,13.102273 19.150996,12 24,12 c 2.85501,0 4.846925,0.124261 5.857422,0.298828 C 29.966889,13.256467 30,15.043351 30,17.5 H 42 C 42,15 42.03021,12.912318 41.769531,10.761719 41.508853,8.6111195 40.854403,6.0380688 38.908203,3.9296875 36.962004,1.8213062 34.348107,0.89768389 31.976562,0.48046875 29.605018,0.06325361 27.124996,0 24,0 Z"
     id="path1291" />
</svg>
