<?xml version="1.0" encoding="UTF-8" standalone="no"?>
<svg
   width="42"
   height="84"
   viewBox="0 0 42 84"
   fill="none"
   version="1.1"
   id="svg6"
   sodipodi:docname="f.svg"
   inkscape:version="1.2.1 (9c6d41e410, 2022-07-14, custom)"
   xmlns:inkscape="http://www.inkscape.org/namespaces/inkscape"
   xmlns:sodipodi="http://sodipodi.sourceforge.net/DTD/sodipodi-0.dtd"
   xmlns="http://www.w3.org/2000/svg"
   xmlns:svg="http://www.w3.org/2000/svg">
  <defs
     id="defs10" />
  <sodipodi:namedview
     id="namedview8"
     pagecolor="#ffffff"
     bordercolor="#000000"
     borderopacity="0.25"
     inkscape:showpageshadow="2"
     inkscape:pageopacity="0.0"
     inkscape:pagecheckerboard="0"
     inkscape:deskcolor="#d1d1d1"
     showgrid="false"
     inkscape:zoom="10.095238"
     inkscape:cx="21"
     inkscape:cy="30.063679"
     inkscape:window-width="1920"
     inkscape:window-height="1019"
     inkscape:window-x="0"
     inkscape:window-y="30"
     inkscape:window-maximized="1"
     inkscape:current-layer="svg6" />
  <path
     id="rect2"
     style="fill:#000000"
     d="M 0,28 H 42 V 40 H 0 Z" />
  <path
     style="color:#000000;fill:#000000;-inkscape-stroke:none"
     d="m 42,0.05273437 c -5.91674,10e-9 -10.379475,-0.13304421 -14.111328,0.01367188 C 24.156818,0.21312234 20.828765,0.45271401 17.603516,2.6679688 14.378266,4.8832235 12.910633,8.7401972 12.431641,12.179688 11.952648,15.619178 12,19.415026 12,24.535156 V 83 H 24 V 24.535156 c 0,-5.12013 0.04735,-8.753206 0.318359,-10.699218 0.271007,-1.946013 0.303378,-1.430105 0.07813,-1.275391 -0.225252,0.154714 0.946704,-0.38525 3.964844,-0.503906 3.01814,-0.118657 7.555424,-0.0039 13.638672,-0.0039 z"
     id="path4" />
</svg>
