<?xml version="1.0" encoding="UTF-8" standalone="no"?>
<svg
   width="36"
   height="56"
   viewBox="0 0 36 56"
   fill="none"
   version="1.1"
   id="svg1348"
   sodipodi:docname="f.svg"
   inkscape:version="1.2.1 (9c6d41e410, 2022-07-14, custom)"
   xmlns:inkscape="http://www.inkscape.org/namespaces/inkscape"
   xmlns:sodipodi="http://sodipodi.sourceforge.net/DTD/sodipodi-0.dtd"
   xmlns="http://www.w3.org/2000/svg"
   xmlns:svg="http://www.w3.org/2000/svg">
  <defs
     id="defs1352" />
  <sodipodi:namedview
     id="namedview1350"
     pagecolor="#ffffff"
     bordercolor="#000000"
     borderopacity="0.25"
     inkscape:showpageshadow="2"
     inkscape:pageopacity="0.0"
     inkscape:pagecheckerboard="0"
     inkscape:deskcolor="#d1d1d1"
     showgrid="false"
     inkscape:zoom="15.142857"
     inkscape:cx="18.09434"
     inkscape:cy="28.033019"
     inkscape:window-width="1920"
     inkscape:window-height="1019"
     inkscape:window-x="0"
     inkscape:window-y="30"
     inkscape:window-maximized="1"
     inkscape:current-layer="svg1348" />
  <path
     id="rect173"
     style="fill:#000000"
     d="m 0,20.068501 h 36 v 9 H 0 Z" />
  <path
     style="color:#000000;fill:#000000;-inkscape-stroke:none"
     d="m 36,0.05273437 c -5.91674,10e-9 -10.379475,-0.13304421 -14.111328,0.01367188 C 18.156818,0.21312234 14.828765,0.45271401 11.603516,2.6679688 8.3782659,4.8832235 6.9106331,8.7401972 6.4316406,12.179688 5.9526482,15.619178 6,19.415026 6,24.535156 6,45.015655 6,55.068359 6,55.068359 h 12 c 0,0 0,-10.052743 0,-30.533203 0,-5.12013 0.04735,-8.753206 0.318359,-10.699218 0.271007,-1.946013 0.303378,-1.430105 0.07813,-1.275391 -0.225252,0.154714 0.946704,-0.38525 3.964844,-0.503906 3.01814,-0.118657 7.555424,-0.0039 13.638672,-0.0039 z"
     id="path170" />
</svg>
