<?xml version="1.0" encoding="UTF-8" standalone="no"?>
<svg
   width="55"
   height="83"
   viewBox="0 0 55 83"
   fill="none"
   version="1.1"
   id="svg777"
   sodipodi:docname="G.svg"
   inkscape:version="1.2.1 (9c6d41e410, 2022-07-14, custom)"
   xmlns:inkscape="http://www.inkscape.org/namespaces/inkscape"
   xmlns:sodipodi="http://sodipodi.sourceforge.net/DTD/sodipodi-0.dtd"
   xmlns="http://www.w3.org/2000/svg"
   xmlns:svg="http://www.w3.org/2000/svg">
  <defs
     id="defs781" />
  <sodipodi:namedview
     id="namedview779"
     pagecolor="#ffffff"
     bordercolor="#000000"
     borderopacity="0.25"
     inkscape:showpageshadow="2"
     inkscape:pageopacity="0.0"
     inkscape:pagecheckerboard="0"
     inkscape:deskcolor="#d1d1d1"
     showgrid="false"
     inkscape:zoom="10.216867"
     inkscape:cx="27.503538"
     inkscape:cy="41.548939"
     inkscape:window-width="1920"
     inkscape:window-height="1019"
     inkscape:window-x="0"
     inkscape:window-y="30"
     inkscape:window-maximized="1"
     inkscape:current-layer="svg777" />
  <path
     style="color:#000000;fill:#000000;-inkscape-stroke:none"
     d="M 27.478516,0 C 19.862745,0 13.233273,1.3421091 8.0683594,5.0917969 2.9034455,8.8414846 0,15.184428 0,22.046875 c 0,0 -2.000008e-5,30.512132 0,41.955078 5.7629492e-6,3.297214 0.30931247,6.289614 1.4960937,9.150391 1.1867813,2.860776 3.4903833,5.40665 6.1894532,6.878906 5.3981401,2.944512 11.3692141,2.914062 19.7929691,2.914062 7.999423,0 13.876769,1.348681 20.023437,-2.363281 3.073334,-1.855981 5.214581,-5.216069 6.201172,-8.78125 0.986591,-3.56518 1.253906,-7.595752 1.253906,-12.841797 V 41 H 33.5 v 12 h 9.457031 v 5.958984 c 0,4.746146 -0.355205,7.959898 -0.820312,9.640625 -0.465107,1.680727 -0.601978,1.566518 -0.837891,1.708985 -0.471825,0.284934 -5.335952,0.636718 -13.820312,0.636718 -8.060029,0 -12.826577,-0.781631 -14.046875,-1.447265 -0.61015,-0.332817 -0.586662,-0.306761 -0.851563,-0.945313 -0.2649,-0.638551 -0.580074,-2.1266 -0.580078,-4.550781 -2e-5,-11.442831 0,-41.955078 0,-41.955078 0,-4.008542 0.975307,-5.687734 3.119141,-7.244141 C 17.262974,13.246327 21.3717,12 27.478516,12 c 5.528727,2e-6 9.265043,0.530916 11.363281,1.230469 2.098237,0.699553 2.47339,1.173446 2.957031,2.029297 0.967283,1.7117 1.158203,7.75978 1.158203,17.21875 h 12 c 0,-9.026612 1.19195,-16.216509 -2.710937,-23.1230472 C 50.29465,5.9021996 46.766709,3.2226429 42.636719,1.8457031 38.506728,0.46876334 33.688226,2.64503e-6 27.478516,0 Z"
     id="path775" />
</svg>
