<?xml version="1.0" encoding="UTF-8" standalone="no"?>
<svg
   width="42"
   height="77"
   viewBox="0 0 42 77"
   fill="none"
   version="1.1"
   id="svg1369"
   sodipodi:docname="g.svg"
   inkscape:version="1.2.1 (9c6d41e410, 2022-07-14, custom)"
   xmlns:inkscape="http://www.inkscape.org/namespaces/inkscape"
   xmlns:sodipodi="http://sodipodi.sourceforge.net/DTD/sodipodi-0.dtd"
   xmlns="http://www.w3.org/2000/svg"
   xmlns:svg="http://www.w3.org/2000/svg">
  <defs
     id="defs1373" />
  <sodipodi:namedview
     id="namedview1371"
     pagecolor="#ffffff"
     bordercolor="#000000"
     borderopacity="0.25"
     inkscape:showpageshadow="2"
     inkscape:pageopacity="0.0"
     inkscape:pagecheckerboard="0"
     inkscape:deskcolor="#d1d1d1"
     showgrid="false"
     inkscape:zoom="11.012987"
     inkscape:cx="20.975236"
     inkscape:cy="38.545401"
     inkscape:window-width="1920"
     inkscape:window-height="1019"
     inkscape:window-x="0"
     inkscape:window-y="30"
     inkscape:window-maximized="1"
     inkscape:current-layer="svg1369" />
  <path
     style="color:#000000;fill:#000000;-inkscape-stroke:none"
     d="M 19.066406,0.5 C 13.60519,0.5 8.2863995,2.1689718 4.765625,6.1152344 1.2448505,10.061497 0,15.371697 0,21.244141 c 0,0 -9.9999959e-6,6.745498 0,17.308593 1.2905704e-5,6.816148 3.4434196,12.580593 8.078125,15.171875 C 12.71283,56.315891 17.55798,56.5 21.736328,56.5 h 0.458984 l 0.453125,-0.07031 C 34.554805,54.598724 42,46.448436 42,37.849609 H 30 c 0,2.050053 -1.287507,5.331159 -8.771484,6.613282 C 18.009393,44.411726 15.189723,43.951214 13.935547,43.25 12.609738,42.508735 12.000007,42.299576 12,38.552734 11.99999,27.989651 12,21.244141 12,21.244141 12,17.081494 12.900704,15.020423 13.71875,14.103516 14.536796,13.186608 15.751331,12.5 19.066406,12.5 c 4.087021,0 7.133289,1.11854 8.890625,2.347656 C 29.714367,16.076773 30,17.144999 30,17.5 H 42 C 42,12.337406 38.970046,7.9051512 34.835937,5.0136719 30.701829,2.1221926 25.281975,0.5 19.066406,0.5 Z"
     id="path1365" />
  <path
     style="color:#000000;fill:#000000;-inkscape-stroke:none"
     d="m 30,2 v 56.5 c 0,2.596151 -0.461815,3.643508 -0.640625,3.90625 -0.17881,0.262742 -0.2882,0.495678 -1.894531,0.902344 C 24.252181,64.121926 16.383322,64 5,64 V 76 C 16.116656,76 23.747829,76.628071 30.410156,74.941406 33.74132,74.098074 37.163188,72.268505 39.28125,69.15625 41.399312,66.043995 42,62.403842 42,58.5 V 2 Z"
     id="path1367" />
</svg>
