<?xml version="1.0" encoding="UTF-8" standalone="no"?>
<svg
   width="56"
   height="83"
   viewBox="0 0 56 83"
   fill="none"
   version="1.1"
   id="svg853"
   sodipodi:docname="K.svg"
   inkscape:version="1.2.1 (9c6d41e410, 2022-07-14, custom)"
   xmlns:inkscape="http://www.inkscape.org/namespaces/inkscape"
   xmlns:sodipodi="http://sodipodi.sourceforge.net/DTD/sodipodi-0.dtd"
   xmlns="http://www.w3.org/2000/svg"
   xmlns:svg="http://www.w3.org/2000/svg">
  <defs
     id="defs857" />
  <sodipodi:namedview
     id="namedview855"
     pagecolor="#ffffff"
     bordercolor="#000000"
     borderopacity="0.25"
     inkscape:showpageshadow="2"
     inkscape:pageopacity="0.0"
     inkscape:pagecheckerboard="0"
     inkscape:deskcolor="#d1d1d1"
     showgrid="false"
     inkscape:zoom="10.216867"
     inkscape:cx="27.992925"
     inkscape:cy="41.548939"
     inkscape:window-width="1920"
     inkscape:window-height="1019"
     inkscape:window-x="0"
     inkscape:window-y="30"
     inkscape:window-maximized="1"
     inkscape:current-layer="svg853" />
  <path
     style="color:#000000;fill:#000000;-inkscape-stroke:none"
     d="M 0,0 V 41.5 83 H 12 V 47.673828 c 7.447579,0.180324 13.700813,0.595082 17.925781,1.474609 5.382164,1.120425 8.007841,2.65534 9.628906,4.5 1.621066,1.844661 2.708006,4.617807 3.3125,9.47461 C 43.471682,67.97985 43.5,74.625008 43.5,83 h 12 c 0,-8.374992 0.02832,-15.29236 -0.726563,-21.357422 -0.754878,-6.065061 -2.386696,-11.573183 -6.203125,-15.916016 -2.868403,-3.264045 -6.707613,-5.517995 -11.345703,-7.042968 0.52535,-1.161238 1.042579,-2.331543 1.490235,-3.730469 C 41.036869,27.696797 42.5,16.86362 42.5,0 h -12 c 0,16.136347 -1.536873,26.053215 -3.214844,31.296875 -0.76351,2.38597 -1.523565,3.657132 -1.933594,4.203125 H 12 V 0 Z"
     id="path851" />
</svg>
