<?xml version="1.0" encoding="UTF-8" standalone="no"?>
<svg
   width="41"
   height="55"
   viewBox="0 0 41 55"
   fill="none"
   version="1.1"
   id="svg1456"
   sodipodi:docname="k.svg"
   inkscape:version="1.2.1 (9c6d41e410, 2022-07-14, custom)"
   xmlns:inkscape="http://www.inkscape.org/namespaces/inkscape"
   xmlns:sodipodi="http://sodipodi.sourceforge.net/DTD/sodipodi-0.dtd"
   xmlns="http://www.w3.org/2000/svg"
   xmlns:svg="http://www.w3.org/2000/svg">
  <defs
     id="defs1460" />
  <sodipodi:namedview
     id="namedview1458"
     pagecolor="#ffffff"
     bordercolor="#000000"
     borderopacity="0.25"
     inkscape:showpageshadow="2"
     inkscape:pageopacity="0.0"
     inkscape:pagecheckerboard="0"
     inkscape:deskcolor="#d1d1d1"
     showgrid="false"
     inkscape:zoom="15.418182"
     inkscape:cx="20.495283"
     inkscape:cy="27.532429"
     inkscape:window-width="1920"
     inkscape:window-height="1019"
     inkscape:window-x="0"
     inkscape:window-y="30"
     inkscape:window-maximized="1"
     inkscape:current-layer="svg1456" />
  <path
     style="color:#000000;fill:#000000;-inkscape-stroke:none"
     d="M 0,0 V 28 55 H 12 V 34.150391 c 3.955038,0.134847 7.375181,0.358601 9.658203,0.787109 3.383692,0.635097 4.659363,1.455296 5.308594,2.158203 0.649231,0.702907 1.252009,1.929189 1.626953,4.900391 C 28.968694,44.967295 29,49.349406 29,55 h 12 c 0,-5.650594 0.03131,-10.295593 -0.5,-14.505859 -0.531305,-4.210267 -1.741031,-8.319227 -4.716797,-11.541016 -1.724657,-1.867245 -3.926499,-3.119147 -6.335937,-4.101563 0.08383,-0.245099 0.192858,-0.438513 0.273437,-0.693359 C 31.369468,18.94371 32.333984,11.491845 32.333984,0 h -12 c 0,10.773233 -1.036805,17.321793 -2.054687,20.541016 C 17.961629,21.545692 17.83492,21.644344 17.638672,22 H 12 V 0 Z"
     id="path1454" />
</svg>
