<?xml version="1.0" encoding="UTF-8" standalone="no"?>
<svg
   width="42"
   height="55"
   viewBox="0 0 42 55"
   fill="none"
   version="1.1"
   id="svg1508"
   sodipodi:docname="n.svg"
   inkscape:version="1.2.1 (9c6d41e410, 2022-07-14, custom)"
   xmlns:inkscape="http://www.inkscape.org/namespaces/inkscape"
   xmlns:sodipodi="http://sodipodi.sourceforge.net/DTD/sodipodi-0.dtd"
   xmlns="http://www.w3.org/2000/svg"
   xmlns:svg="http://www.w3.org/2000/svg">
  <defs
     id="defs1512" />
  <sodipodi:namedview
     id="namedview1510"
     pagecolor="#ffffff"
     bordercolor="#000000"
     borderopacity="0.25"
     inkscape:showpageshadow="2"
     inkscape:pageopacity="0.0"
     inkscape:pagecheckerboard="0"
     inkscape:deskcolor="#d1d1d1"
     showgrid="false"
     inkscape:zoom="15.418182"
     inkscape:cx="21.014151"
     inkscape:cy="27.532429"
     inkscape:window-width="1920"
     inkscape:window-height="1019"
     inkscape:window-x="0"
     inkscape:window-y="30"
     inkscape:window-maximized="1"
     inkscape:current-layer="svg1508" />
  <path
     d="M0 0H12V55H0V0Z"
     fill="black"
     id="path1502" />
  <path
     style="color:#000000;fill:#000000;-inkscape-stroke:none"
     d="M 23,0 C 17.430743,0 11.141616,1.317549 6.5957031,6.1308594 2.0497906,10.94417 0,18.160499 0,28 H 12 C 12,19.839519 13.727331,16.055824 15.320313,14.369141 16.913294,12.682458 19.124867,12 23,12 Z"
     id="path1504" />
  <path
     style="color:#000000;fill:#000000;-inkscape-stroke:none"
     d="m 23,0 v 12 c 2.545997,0 4.15626,0.278617 4.787109,0.513672 0.63085,0.235055 0.443984,0.07507 0.748047,0.636719 C 29.143282,14.273684 30,19.54788 30,29 V 55 H 42 V 29 C 42,19.235649 42.106714,13.010077 39.089844,7.4375 37.581409,4.6512113 34.863288,2.3443987 31.978516,1.2695312 29.093743,0.19466379 26.203998,0 23,0 Z"
     id="path1506" />
</svg>
