<?xml version="1.0" encoding="UTF-8" standalone="no"?>
<svg
   width="56"
   height="83"
   viewBox="0 0 56 83"
   fill="none"
   version="1.1"
   id="svg971"
   sodipodi:docname="O.svg"
   inkscape:version="1.2.1 (9c6d41e410, 2022-07-14, custom)"
   xmlns:inkscape="http://www.inkscape.org/namespaces/inkscape"
   xmlns:sodipodi="http://sodipodi.sourceforge.net/DTD/sodipodi-0.dtd"
   xmlns="http://www.w3.org/2000/svg"
   xmlns:svg="http://www.w3.org/2000/svg">
  <defs
     id="defs975" />
  <sodipodi:namedview
     id="namedview973"
     pagecolor="#ffffff"
     bordercolor="#000000"
     borderopacity="0.25"
     inkscape:showpageshadow="2"
     inkscape:pageopacity="0.0"
     inkscape:pagecheckerboard="0"
     inkscape:deskcolor="#d1d1d1"
     showgrid="false"
     inkscape:zoom="10.216867"
     inkscape:cx="27.992925"
     inkscape:cy="41.548939"
     inkscape:window-width="1920"
     inkscape:window-height="1019"
     inkscape:window-x="0"
     inkscape:window-y="30"
     inkscape:window-maximized="1"
     inkscape:current-layer="svg971" />
  <path
     style="color:#000000;fill:#000000;-inkscape-stroke:none"
     d="m 31,0 v 12 c 8.954654,0 11.78123,1.536288 12.152344,1.951172 C 43.523457,14.366055 44,16.620802 44,22.060547 v 41.988281 c 0,2.072298 -0.05062,3.636008 -0.197266,4.427734 -0.146646,0.791727 -0.145673,0.651899 -0.257812,0.75586 C 43.320644,69.440344 40.009191,71 31,71 v 12 c 9.99079,0 16.179361,-0.771123 20.705078,-4.966797 2.262859,-2.097837 3.451335,-4.957248 3.898438,-7.371094 C 56.050618,68.248264 56,66.121126 56,64.048828 V 22.060547 C 56,16.620802 56.476538,10.844555 52.097656,5.9492187 47.718774,1.0538824 41.045327,0 31,0 Z"
     id="path967" />
  <path
     style="color:#000000;fill:#000000;-inkscape-stroke:none"
     d="M 31,0 C 18.568292,0 11.27143,0.81235888 6.0234375,5.4570312 3.3994411,7.7793674 2.0058459,11.018388 1.4765625,13.863281 0.94727909,16.708174 1,19.340675 1,22.060547 c 0,0 -2e-5,33.699041 0,41.988281 2.5e-6,2.072296 -0.0745638,4.289064 0.5332031,6.886719 0.607767,2.597655 2.2850116,5.60222 4.9160156,7.533203 C 11.711227,82.330716 18.611467,83 31,83 V 71 C 19.388567,71 14.288762,69.336551 13.550781,68.794922 13.181791,68.524107 13.35903,68.809089 13.216797,68.201172 13.074564,67.593255 13.000002,66.121128 13,64.048828 c -2e-5,-8.289143 0,-41.988281 0,-41.988281 0,-2.719872 0.05272,-4.81561 0.273438,-6.001953 0.220715,-1.186344 0.327125,-1.282461 0.703125,-1.615235 C 14.728561,13.777812 19.431742,12 31,12 Z"
     id="path969" />
</svg>
