<?xml version="1.0" encoding="UTF-8" standalone="no"?>
<svg
   width="42"
   height="77"
   viewBox="0 0 42 77"
   fill="none"
   version="1.1"
   id="svg1557"
   sodipodi:docname="p.svg"
   inkscape:version="1.2.1 (9c6d41e410, 2022-07-14, custom)"
   xmlns:inkscape="http://www.inkscape.org/namespaces/inkscape"
   xmlns:sodipodi="http://sodipodi.sourceforge.net/DTD/sodipodi-0.dtd"
   xmlns="http://www.w3.org/2000/svg"
   xmlns:svg="http://www.w3.org/2000/svg">
  <defs
     id="defs1561" />
  <sodipodi:namedview
     id="namedview1559"
     pagecolor="#ffffff"
     bordercolor="#000000"
     borderopacity="0.25"
     inkscape:showpageshadow="2"
     inkscape:pageopacity="0.0"
     inkscape:pagecheckerboard="0"
     inkscape:deskcolor="#d1d1d1"
     showgrid="false"
     inkscape:zoom="11.012987"
     inkscape:cx="20.975236"
     inkscape:cy="38.636203"
     inkscape:window-width="1920"
     inkscape:window-height="1019"
     inkscape:window-x="0"
     inkscape:window-y="30"
     inkscape:window-maximized="1"
     inkscape:current-layer="svg1557" />
  <path
     style="color:#000000;fill:#000000;-inkscape-stroke:none"
     d="M 22.933594,0 C 16.718025,0 11.298173,1.6221937 7.1640625,4.5136719 3.0299525,7.4051501 0,11.837403 0,17 h 12 c 0,-0.354997 0.28563,-1.423226 2.042969,-2.652344 C 15.800308,13.118539 18.846573,12 22.933594,12 c 3.315075,0 4.52961,0.686608 5.347656,1.603516 C 29.099296,14.520423 30,16.581494 30,20.744141 v 17.308593 c 0,3.746838 -0.609726,3.955998 -1.935547,4.697266 -1.254187,0.701217 -4.073796,1.161726 -7.292969,1.212891 C 13.287614,42.680772 12,39.399655 12,37.349609 H 0 c 0,8.598834 7.4452799,16.749109 19.351562,18.580078 L 19.804687,56 h 0.458985 c 4.178393,0 9.02348,-0.184112 13.658203,-2.775391 C 38.556598,50.633331 42,44.868886 42,38.052734 V 20.744141 C 42,14.871697 40.75515,9.561497 37.234375,5.6152344 33.7136,1.6689718 28.39481,0 22.933594,0 Z"
     id="path170" />
  <path
     id="rect173"
     style="fill:#000000"
     d="M 0,1 H 12 V 77 H 0 Z" />
</svg>
