<?xml version="1.0" encoding="UTF-8" standalone="no"?>
<svg
   width="42"
   height="76"
   viewBox="0 0 42 76"
   fill="none"
   version="1.1"
   id="svg1578"
   sodipodi:docname="q.svg"
   inkscape:version="1.2.1 (9c6d41e410, 2022-07-14, custom)"
   xmlns:inkscape="http://www.inkscape.org/namespaces/inkscape"
   xmlns:sodipodi="http://sodipodi.sourceforge.net/DTD/sodipodi-0.dtd"
   xmlns="http://www.w3.org/2000/svg"
   xmlns:svg="http://www.w3.org/2000/svg">
  <defs
     id="defs1582" />
  <sodipodi:namedview
     id="namedview1580"
     pagecolor="#ffffff"
     bordercolor="#000000"
     borderopacity="0.25"
     inkscape:showpageshadow="2"
     inkscape:pageopacity="0.0"
     inkscape:pagecheckerboard="0"
     inkscape:deskcolor="#d1d1d1"
     showgrid="false"
     inkscape:zoom="11.157895"
     inkscape:cx="20.971698"
     inkscape:cy="38.134433"
     inkscape:window-width="1920"
     inkscape:window-height="1019"
     inkscape:window-x="0"
     inkscape:window-y="30"
     inkscape:window-maximized="1"
     inkscape:current-layer="svg1578" />
  <path
     style="color:#000000;fill:#000000;-inkscape-stroke:none"
     d="M 19.066406,0 C 13.60519,0 8.2863995,1.6689718 4.765625,5.6152344 1.2448505,9.561497 0,14.871697 0,20.744141 c 0,0 -9.9999959e-6,6.745498 0,17.308593 1.2905704e-5,6.816148 3.4434196,12.580593 8.078125,15.171875 C 12.71283,55.815891 17.55798,56 21.736328,56 h 0.458984 l 0.453125,-0.07031 C 34.554805,54.098724 42,45.948436 42,37.349609 H 30 c 0,2.050053 -1.287507,5.331159 -8.771484,6.613282 C 18.009393,43.911726 15.189723,43.451214 13.935547,42.75 12.609738,42.008735 12.000007,41.799576 12,38.052734 11.99999,27.489651 12,20.744141 12,20.744141 12,16.581494 12.900704,14.520423 13.71875,13.603516 14.536796,12.686608 15.751331,12 19.066406,12 c 4.087021,0 7.133289,1.11854 8.890625,2.347656 C 29.714367,15.576773 30,16.644999 30,17 H 42 C 42,11.837406 38.970046,7.4051512 34.835937,4.5136719 30.701829,1.6221926 25.281975,0 19.066406,0 Z"
     id="path171" />
  <path
     id="path174"
     transform="matrix(-1 0 0 1 42 0)"
     style="fill:#000000"
     d="M 0,0 H 12 V 76 H 0 Z" />
</svg>
