<?xml version="1.0" encoding="UTF-8" standalone="no"?>
<svg
   width="56"
   height="84"
   viewBox="0 0 56 84"
   fill="none"
   version="1.1"
   id="svg1017"
   sodipodi:docname="Q.svg"
   inkscape:version="1.2.1 (9c6d41e410, 2022-07-14, custom)"
   xmlns:inkscape="http://www.inkscape.org/namespaces/inkscape"
   xmlns:sodipodi="http://sodipodi.sourceforge.net/DTD/sodipodi-0.dtd"
   xmlns="http://www.w3.org/2000/svg"
   xmlns:svg="http://www.w3.org/2000/svg">
  <defs
     id="defs1021" />
  <sodipodi:namedview
     id="namedview1019"
     pagecolor="#ffffff"
     bordercolor="#000000"
     borderopacity="0.25"
     inkscape:showpageshadow="2"
     inkscape:pageopacity="0.0"
     inkscape:pagecheckerboard="0"
     inkscape:deskcolor="#d1d1d1"
     showgrid="false"
     inkscape:zoom="10.095238"
     inkscape:cx="28.033019"
     inkscape:cy="42.049528"
     inkscape:window-width="1920"
     inkscape:window-height="1019"
     inkscape:window-x="0"
     inkscape:window-y="30"
     inkscape:window-maximized="1"
     inkscape:current-layer="svg1017" />
  <path
     style="color:#000000;fill:#000000;-inkscape-stroke:none"
     d="m 29,0 v 12 c 7.890498,0 9.910303,1.34799 10.191406,1.699219 C 39.47251,14.050448 40,16.620802 40,22.060547 v 41.988281 c 0,2.072298 -0.04139,3.669223 -0.185547,4.539063 -0.144156,0.869839 -0.213963,0.835496 -0.255859,0.878906 C 39.474802,69.553617 36.951451,71 29,71 v 12 c 9.048532,0 15.025202,-0.884396 19.191406,-5.201172 2.083102,-2.158388 3.075797,-4.912314 3.462891,-7.248047 C 52.041391,68.215049 52,66.121126 52,64.048828 V 22.060547 C 52,16.620802 52.527486,11.160162 48.558594,6.2011719 44.589702,1.2421813 38.109485,0 29,0 Z"
     id="path1011" />
  <path
     style="color:#000000;fill:#000000;-inkscape-stroke:none"
     d="M 29,0 C 17.529044,0 10.506459,0.88025046 5.5820312,5.6347656 3.1198172,8.0120232 1.9041245,11.171204 1.4296875,13.953125 0.95525053,16.735046 1,19.340675 1,22.060547 c 0,0 -2e-5,33.699041 0,41.988281 2.5e-6,2.072295 -0.0652326,4.251137 0.4765625,6.777344 C 2.0183576,73.352379 3.5048296,76.318634 6,78.316406 10.990341,82.311951 17.576139,83 29,83 V 71 C 18.423883,71 14.009646,69.35727 13.5,68.949219 13.245177,68.745193 13.356641,68.989912 13.210938,68.310547 13.065234,67.631182 13.000003,66.121129 13,64.048828 c -2e-5,-8.289143 0,-41.988281 0,-41.988281 0,-2.719872 0.04475,-4.842481 0.257813,-6.091797 0.213062,-1.249316 0.372374,-1.42332 0.660156,-1.701172 C 14.493533,13.711874 18.470988,12 29,12 Z"
     id="path1013" />
  <path
     style="color:#000000;fill:#000000;-inkscape-stroke:none"
     d="m 23,60.5 v 5 c 0,4.041663 1.198069,7.918464 3.613281,10.751953 2.415212,2.833489 5.645116,4.387673 8.839844,5.277344 C 41.842581,83.308639 48.818973,83 56,83 V 71 C 48.681042,71 42.157409,70.941358 38.671875,69.970703 36.929108,69.485376 36.127754,68.914554 35.746094,68.466797 35.364434,68.019039 35,67.458331 35,65.5 v -5 z"
     id="path1015" />
</svg>
