<?xml version="1.0" encoding="UTF-8" standalone="no"?>
<svg
   width="55"
   height="83"
   viewBox="0 0 55 83"
   fill="none"
   version="1.1"
   id="svg1069"
   sodipodi:docname="S.svg"
   inkscape:version="1.2.1 (9c6d41e410, 2022-07-14, custom)"
   xmlns:inkscape="http://www.inkscape.org/namespaces/inkscape"
   xmlns:sodipodi="http://sodipodi.sourceforge.net/DTD/sodipodi-0.dtd"
   xmlns="http://www.w3.org/2000/svg"
   xmlns:svg="http://www.w3.org/2000/svg">
  <defs
     id="defs1073" />
  <sodipodi:namedview
     id="namedview1071"
     pagecolor="#ffffff"
     bordercolor="#000000"
     borderopacity="0.25"
     inkscape:showpageshadow="2"
     inkscape:pageopacity="0.0"
     inkscape:pagecheckerboard="0"
     inkscape:deskcolor="#d1d1d1"
     showgrid="false"
     inkscape:zoom="10.216867"
     inkscape:cx="27.503538"
     inkscape:cy="41.548939"
     inkscape:window-width="1920"
     inkscape:window-height="1019"
     inkscape:window-x="0"
     inkscape:window-y="30"
     inkscape:window-maximized="1"
     inkscape:current-layer="svg1069" />
  <path
     style="color:#000000;fill:#000000;-inkscape-stroke:none"
     d="M 13.583984,0 C 10.671204,0 7.6708896,1.0169321 5.5410156,2.8417969 3.4111416,4.6666616 2.2141328,6.9782246 1.4765625,9.1835938 0.00142192,13.594332 0,18.06617 0,22.279297 v 5.882812 4.884766 C 0,37.736048 2.0047226,42.076211 5.1289062,44.619141 8.2530899,47.16207 11.954187,48 15.333984,48 h 27.085938 c 0.04617,0.120283 -0.01449,-0.04128 0.03906,0.167969 C 42.864805,49.753509 43,53.395098 43,57.464844 v 13.023437 c 0,0.233705 0.02891,0.03353 0.01953,0.117188 C 42.410487,70.783308 40.417516,71 37.916016,71 H 0 v 12 h 37.916016 c 2.624997,0 5.911559,0.230335 9.666015,-1.214844 1.877229,-0.722589 3.945754,-2.059446 5.371094,-4.134765 C 54.378465,75.575071 55,73.012011 55,70.488281 V 57.464844 C 55,53.395098 55.136487,49.305488 54.083984,45.193359 53.557733,43.137295 52.680249,40.913468 50.765625,39.013672 48.851001,37.113876 45.880162,36 43.166016,36 H 15.333984 C 14.047186,36 13.080891,35.618393 12.705078,35.3125 12.329265,35.006607 12,34.869395 12,33.046875 v -4.884766 -5.882812 c 0,-3.926465 0.290907,-7.595157 0.857422,-9.289063 0.283257,-0.846952 0.543947,-1.079504 0.492187,-1.035156 C 13.297849,11.999426 12.996783,12 13.583984,12 H 55 V 0 Z"
     id="path1067" />
</svg>
