<?xml version="1.0" encoding="UTF-8" standalone="no"?>
<svg
   width="43"
   height="55"
   viewBox="0 0 43 55"
   fill="none"
   version="1.1"
   id="svg1613"
   sodipodi:docname="s.svg"
   inkscape:version="1.2.1 (9c6d41e410, 2022-07-14, custom)"
   xmlns:inkscape="http://www.inkscape.org/namespaces/inkscape"
   xmlns:sodipodi="http://sodipodi.sourceforge.net/DTD/sodipodi-0.dtd"
   xmlns="http://www.w3.org/2000/svg"
   xmlns:svg="http://www.w3.org/2000/svg">
  <defs
     id="defs1617" />
  <sodipodi:namedview
     id="namedview1615"
     pagecolor="#ffffff"
     bordercolor="#000000"
     borderopacity="0.25"
     inkscape:showpageshadow="2"
     inkscape:pageopacity="0.0"
     inkscape:pagecheckerboard="0"
     inkscape:deskcolor="#d1d1d1"
     showgrid="false"
     inkscape:zoom="15.418182"
     inkscape:cx="21.46816"
     inkscape:cy="27.532429"
     inkscape:window-width="1920"
     inkscape:window-height="1019"
     inkscape:window-x="0"
     inkscape:window-y="30"
     inkscape:window-maximized="1"
     inkscape:current-layer="svg1613" />
  <path
     style="color:#000000;fill:#000000;-inkscape-stroke:none"
     d="M 12.5,0 C 7.833338,0 3.2091872,3.0592753 1.5625,6.5878906 -0.08418716,10.116506 0,13.300003 0,16 v 6 c 0,3.999996 2.6160017,7.764933 5.4765625,9.433594 C 8.3371233,33.102254 11.250003,33.5 14,33.5 H 29.791016 C 29.87494,34.215232 30,35.100899 30,37 v 5.794922 C 29.078836,42.889735 28.12647,43 26.5,43 H 0 v 12 h 26.5 c 2.249998,0 4.925441,0.140517 8.033203,-0.716797 1.553881,-0.428657 3.366277,-1.168632 4.947266,-2.818359 C 41.061458,49.815116 42,47.249998 42,45 v -8 c 0,-2.499998 0.228705,-5.273297 -0.974609,-8.642578 -0.601658,-1.684641 -1.76833,-3.622887 -3.658204,-4.966797 C 35.477314,22.046715 33.149998,21.5 31,21.5 H 14 c -1.009416,0 -1.616239,-0.218585 -2,-0.349609 V 16 c 0,-2.145701 0.285343,-3.645374 0.408203,-4.046875 C 12.488831,11.961754 12.375725,12 12.5,12 H 42 V 0 Z"
     id="path1611" />
</svg>
