<?xml version="1.0" encoding="UTF-8" standalone="no"?>
<svg
   width="40"
   height="63"
   viewBox="0 0 40 63"
   fill="none"
   version="1.1"
   id="svg1631"
   sodipodi:docname="t.svg"
   inkscape:version="1.2.1 (9c6d41e410, 2022-07-14, custom)"
   xmlns:inkscape="http://www.inkscape.org/namespaces/inkscape"
   xmlns:sodipodi="http://sodipodi.sourceforge.net/DTD/sodipodi-0.dtd"
   xmlns="http://www.w3.org/2000/svg"
   xmlns:svg="http://www.w3.org/2000/svg">
  <defs
     id="defs1635" />
  <sodipodi:namedview
     id="namedview1633"
     pagecolor="#ffffff"
     bordercolor="#000000"
     borderopacity="0.25"
     inkscape:showpageshadow="2"
     inkscape:pageopacity="0.0"
     inkscape:pagecheckerboard="0"
     inkscape:deskcolor="#d1d1d1"
     showgrid="false"
     inkscape:zoom="13.460317"
     inkscape:cx="19.98467"
     inkscape:cy="31.537147"
     inkscape:window-width="1920"
     inkscape:window-height="1019"
     inkscape:window-x="0"
     inkscape:window-y="30"
     inkscape:window-maximized="1"
     inkscape:current-layer="svg1631" />
  <path
     style="color:#000000;fill:#000000;-inkscape-stroke:none"
     d="m 10,0 v 37.5 c 0,5.124995 -0.04716,8.923854 0.431641,12.365234 0.4788,3.441381 1.94461,7.298224 5.169922,9.515625 3.225311,2.217402 6.554918,2.460554 10.287109,2.607422 C 29.620863,62.13515 34.083339,62 40,62 V 50 c -6.083327,0 -10.62087,0.11485 -13.638672,-0.0039 -3.017802,-0.118756 -4.188205,-0.656857 -3.962891,-0.501953 0.225315,0.154904 0.191121,0.667989 -0.08008,-1.28125 C 22.047161,46.263651 22,42.624995 22,37.5 V 0 Z"
     id="path170" />
  <path
     id="rect173"
     style="fill:#000000"
     d="m 0,7 h 36 v 9 H 0 Z" />
</svg>
