<?xml version="1.0" encoding="UTF-8" standalone="no"?>
<svg
   width="50"
   height="78"
   viewBox="0 0 50 78"
   fill="none"
   version="1.1"
   id="svg1700"
   sodipodi:docname="y.svg"
   inkscape:version="1.2.1 (9c6d41e410, 2022-07-14, custom)"
   xmlns:inkscape="http://www.inkscape.org/namespaces/inkscape"
   xmlns:sodipodi="http://sodipodi.sourceforge.net/DTD/sodipodi-0.dtd"
   xmlns="http://www.w3.org/2000/svg"
   xmlns:svg="http://www.w3.org/2000/svg">
  <defs
     id="defs1704" />
  <sodipodi:namedview
     id="namedview1702"
     pagecolor="#ffffff"
     bordercolor="#000000"
     borderopacity="0.25"
     inkscape:showpageshadow="2"
     inkscape:pageopacity="0.0"
     inkscape:pagecheckerboard="0"
     inkscape:deskcolor="#d1d1d1"
     showgrid="false"
     inkscape:zoom="10.871795"
     inkscape:cx="25.018868"
     inkscape:cy="39.045991"
     inkscape:window-width="1920"
     inkscape:window-height="1019"
     inkscape:window-x="0"
     inkscape:window-y="30"
     inkscape:window-maximized="1"
     inkscape:current-layer="svg1700" />
  <path
     style="color:#000000;fill:#000000;-inkscape-stroke:none"
     d="m 37.5,0 c 0,24.055078 -2.288464,31.243246 -10.970703,50.537109 -2.610026,5.800059 -3.63142,10.025621 -5.197266,11.783203 -1.565846,1.757583 -4.275332,3.385303 -14.4238279,2.69336 L 6.0917969,76.986328 C 17.943279,77.794384 25.733821,75.422098 30.292969,70.304687 34.852116,65.187277 35.580734,59.662822 37.470703,55.462891 46.338447,35.756793 49.5,24.944873 49.5,0 Z"
     id="path1696" />
  <path
     style="color:#000000;fill:#000000;-inkscape-stroke:none"
     d="m 7,0 c 0,8.7754949 1.7701252,19.74654 5.802734,29.269531 2.016305,4.761496 4.598301,9.186119 8.189453,12.6875 C 24.58334,45.458413 29.487304,48 35,48 V 36 C 32.950203,36 31.322904,35.268254 29.371094,33.365234 27.419283,31.462215 25.446582,28.351865 23.853516,24.589844 20.667382,17.065802 19,7.0362893 19,0 Z"
     id="path1698" />
</svg>
