<?xml version="1.0" encoding="UTF-8" standalone="no"?>
<svg
   width="65"
   height="26"
   viewBox="0 0 65 26"
   fill="none"
   version="1.1"
   id="svg1766"
   sodipodi:docname="~.svg"
   inkscape:version="1.2.1 (9c6d41e410, 2022-07-14, custom)"
   xmlns:inkscape="http://www.inkscape.org/namespaces/inkscape"
   xmlns:sodipodi="http://sodipodi.sourceforge.net/DTD/sodipodi-0.dtd"
   xmlns="http://www.w3.org/2000/svg"
   xmlns:svg="http://www.w3.org/2000/svg">
  <defs
     id="defs1770" />
  <sodipodi:namedview
     id="namedview1768"
     pagecolor="#ffffff"
     bordercolor="#000000"
     borderopacity="0.25"
     inkscape:showpageshadow="2"
     inkscape:pageopacity="0.0"
     inkscape:pagecheckerboard="0"
     inkscape:deskcolor="#d1d1d1"
     showgrid="false"
     inkscape:zoom="19.892308"
     inkscape:cx="32.474865"
     inkscape:cy="13.045244"
     inkscape:window-width="1920"
     inkscape:window-height="1019"
     inkscape:window-x="0"
     inkscape:window-y="30"
     inkscape:window-maximized="1"
     inkscape:current-layer="svg1766" />
  <path
     style="color:#000000;fill:#000000;-inkscape-stroke:none"
     d="M 18.628906,0.67382812 C 13.315111,1.3941468 7.4894794,4.3837528 0.734375,9.828125 l 7.53125,9.34375 c 7.743177,-6.240724 11.762166,-6.907045 13.695312,-6.609375 1.933147,0.29767 3.804998,1.966862 6.685547,5.003906 2.88055,3.037045 6.885096,7.60384 13.585938,8.183594 6.700842,0.579754 13.455899,-2.991946 21.86914,-10.871094 L 55.898437,6.1210937 C 48.561694,12.992082 44.691728,13.918139 43.267578,13.794922 41.843428,13.671705 40.222961,12.333931 37.353516,9.3085938 34.484071,6.2832569 30.480907,1.7335503 23.789062,0.703125 22.116101,0.44551868 20.400171,0.43372191 18.628906,0.67382812 Z"
     id="path1764" />
</svg>
